# xmcd CD database file
#
# Track frame offsets:
#	150
#	13613
#	25690
#	44206
#	55250
#	68823
#	83223
#	96874
#	117945
#	129495
#	146220
#	160407
#
# Disc length: 2352 seconds
#
# Revision: 0
# Processed by: cddbd v1.5.2PL0 Copyright (c) Steve Scherf et al.
# Submitted via: ACXtractor (MTCDDB.DLL V2003.12.21)
#
DISCID=a8092e0c
DTITLE=Charley Boyter - The Sunset is Red
DYEAR=1996
DGENRE=Country
TTITLE0=I Offer these Ballads to You
TTITLE1=Old Retired Drovers
TTITLE2=Old Stock Riding Days
TTITLE3=Travellin' On  (Instrumental)
TTITLE4=Sunburnt Country Son
TTITLE5=No More Big Mobs on the Bogan
TTITLE6=Dry Weather Wind
TTITLE7=Black Soil Plains (instrumental)
TTITLE8=Big Gulf Rivers
TTITLE9=Old Wallerwang (Instrumental)
TTITLE10=Young man From the Country
TTITLE11=The Sunset is Red
EXTD=ID3G:   2 YEAR: 1996
EXTT0=
EXTT1=
EXTT2=
EXTT3=
EXTT4=
EXTT5=
EXTT6=
EXTT7=
EXTT8=
EXTT9=
EXTT10=
EXTT11=
PLAYORDER=
